<?xml version="1.0" encoding="utf-8"?>
<!-- Generator: Adobe Illustrator 27.3.1, SVG Export Plug-In . SVG Version: 6.00 Build 0)  -->
<svg version="1.1" id="Camada_1" xmlns="http://www.w3.org/2000/svg" xmlns:xlink="http://www.w3.org/1999/xlink" x="0px" y="0px"
	 viewBox="0 0 1500 468.2" style="enable-background:new 0 0 1500 468.2;" xml:space="preserve">
<style type="text/css">
	.st0{clip-path:url(#SVGID_00000129205161987083050760000000426121361983193506_);}
	.st1{opacity:0.4;}
	.st2{clip-path:url(#SVGID_00000067937473137389857780000018327883019789754263_);}
	.st3{fill:url(#SVGID_00000026136122892173937950000016249065786402944385_);}
	.st4{fill:url(#SVGID_00000026140062029131205900000010785095399197666708_);}
	.st5{fill:url(#SVGID_00000058575157944026028970000015746251630646073778_);}
	.st6{fill:url(#SVGID_00000023242443453530079070000010959066037443008900_);}
	.st7{fill:url(#SVGID_00000028301213171310271980000016970075172707291823_);}
	.st8{clip-path:url(#SVGID_00000011727506593248773730000006452793357536436633_);}
	.st9{fill:url(#SVGID_00000062151454058410599920000008949001856343043213_);}
	.st10{fill:url(#SVGID_00000119104063695581103760000000131054787225409460_);}
	.st11{fill:url(#SVGID_00000179641046771221744620000006620406929580188295_);}
	.st12{fill:url(#SVGID_00000134964430137833230790000007277653923824866951_);}
	.st13{fill:url(#SVGID_00000103224828566338369290000009755824549373501094_);}
	.st14{fill:#268A8C;}
</style>
<g>
	<defs>
		<rect id="SVGID_1_" x="-0.2" y="0.2" width="1500.2" height="465.9"/>
	</defs>
	<clipPath id="SVGID_00000174575698504232195830000012982597589316498590_">
		<use xlink:href="#SVGID_1_"  style="overflow:visible;"/>
	</clipPath>
	<g style="clip-path:url(#SVGID_00000174575698504232195830000012982597589316498590_);">
		<g class="st1">
			<g>
				<defs>
					<rect id="SVGID_00000029730531905650388220000012649104919424370589_" x="-33.7" y="-404.5" width="1578.1" height="858.1"/>
				</defs>
				<clipPath id="SVGID_00000059295162914965808470000010199598374484939189_">
					<use xlink:href="#SVGID_00000029730531905650388220000012649104919424370589_"  style="overflow:visible;"/>
				</clipPath>
				<g style="clip-path:url(#SVGID_00000059295162914965808470000010199598374484939189_);">
					<g>
						
							<linearGradient id="SVGID_00000175310489849492308580000002427220926819506596_" gradientUnits="userSpaceOnUse" x1="801.4664" y1="281.1858" x2="801.4664" y2="1113.2291" gradientTransform="matrix(1 0 0 -1 0 800.09)">
							<stop  offset="0.13" style="stop-color:#2A88BD"/>
							<stop  offset="0.5" style="stop-color:#52BAC2"/>
							<stop  offset="0.83" style="stop-color:#6FDFC7"/>
							<stop  offset="1" style="stop-color:#7BEEC9"/>
						</linearGradient>
						<path style="fill:url(#SVGID_00000175310489849492308580000002427220926819506596_);" d="M1745.2-259.5
							c-89.2,0-156.8-59.5-200.6-115.3c-58.4,75.2-126.3,114.9-197.2,114.9h0c-70.9,0-138.8-39.7-197.2-114.9
							c-58.1,75.3-126.1,115-197.2,115h0c-88.2,0-154.7-59.9-197.2-115c-58.5,75.3-123.9,113.9-194.5,114.9c-0.9,0-1.7,0-2.5,0
							c-71.1,0-139-39.6-197.4-114.8c-59.5,76.3-125.8,114.9-197.2,115h0c-71.3,0-137.6-38.7-197.2-115
							c-76.6,97.5-201.8,156.4-318.4,74.2c-5-3.5-6.2-10.5-2.7-15.5c3.5-5,10.5-6.2,15.5-2.7c108.9,76.7,227.4,14.6,296.5-81
							c2.1-2.9,5.4-4.6,9-4.6h0c3.5,0,6.9,1.7,9,4.5c57.5,78.2,120.8,117.8,188.3,117.8h0c67.6,0,131-39.7,188.3-117.8
							c2.1-2.9,5.4-4.5,9-4.5h0c3.6,0,6.9,1.7,9,4.6c39.1,53.8,103.4,117.6,188.4,117.6c0.8,0,1.5,0,2.3,0
							c66.9-0.9,129.4-40.5,185.8-117.7c2.1-2.9,5.5-4.6,9-4.6h0c3.6,0,6.9,1.7,9,4.6c38.8,53.7,102.9,117.8,188.1,117.8h0
							c85.2,0,149.3-64.1,188.2-117.8c2.1-2.9,5.5-4.6,9-4.6l0,0c3.6,0,6.9,1.7,9,4.6c56.8,78.1,120.1,117.7,188.3,117.7h0
							c68,0,131.3-39.6,188.1-117.6c2.1-2.9,5.4-4.6,9-4.6h0c3.5,0,6.9,1.7,9,4.5c42,57.1,111.5,124.1,203.8,117.6
							c46.8-3.1,81.4-29.1,102.2-50.3c4.2-4.2,8.4-9.4,12.9-14.9c17.5-21.2,41.4-50.4,77.7-44.6c6.1,1,10.2,6.7,9.3,12.8
							c-1,6.1-6.6,10.2-12.8,9.3c-23.7-3.7-40.6,16.9-57,36.8c-4.9,6-9.6,11.7-14.2,16.3c-23.5,24-62.8,53.3-116.6,57
							C1754.2-259.7,1749.7-259.5,1745.2-259.5L1745.2-259.5z"/>
						
							<linearGradient id="SVGID_00000081634976425620840770000009077035635531334532_" gradientUnits="userSpaceOnUse" x1="801.4664" y1="281.1858" x2="801.4664" y2="1113.2291" gradientTransform="matrix(1 0 0 -1 0 800.09)">
							<stop  offset="0.13" style="stop-color:#2A88BD"/>
							<stop  offset="0.5" style="stop-color:#52BAC2"/>
							<stop  offset="0.83" style="stop-color:#6FDFC7"/>
							<stop  offset="1" style="stop-color:#7BEEC9"/>
						</linearGradient>
						<path style="fill:url(#SVGID_00000081634976425620840770000009077035635531334532_);" d="M1745.2-81.2
							c-89.2,0-156.8-59.5-200.6-115.3c-58.4,75.2-126.3,114.9-197.2,114.9h0c-70.9,0-138.8-39.7-197.2-114.9
							c-58.1,75.3-126.1,115-197.2,115h0c-88.2,0-154.7-59.9-197.2-115C697.1-121.2,631.8-82.6,561.2-81.6c-0.9,0-1.7,0-2.5,0
							c-71.1,0-139.1-39.6-197.4-114.8c-59.5,76.3-125.8,114.9-197.2,115h0c-71.3,0-137.6-38.7-197.2-115
							C-109.9-99-235.1-40.1-351.8-122.3c-5-3.5-6.2-10.5-2.7-15.5c3.5-5,10.5-6.2,15.5-2.7c108.9,76.7,227.4,14.6,296.5-81
							c2.1-2.9,5.8-4.5,9-4.6c3.5,0,6.9,1.7,9,4.5c57.5,78.2,120.8,117.8,188.3,117.8h0c67.6,0,131-39.7,188.3-117.8
							c2.1-2.9,5.4-4.5,9-4.5c3.1-0.5,6.9,1.7,9,4.6c39.1,53.8,103.4,117.6,188.4,117.6c0.8,0,1.5,0,2.3,0
							c66.9-0.9,129.4-40.5,185.8-117.8c2.1-2.9,5.5-4.6,9-4.6h0c3.6,0,6.9,1.7,9,4.6c38.8,53.7,102.9,117.8,188.1,117.8h0
							c85.2,0,149.3-64.1,188.2-117.8c2.1-2.9,5.5-4.6,9-4.6l0,0c3.6,0,6.9,1.7,9,4.6c56.8,78.1,120.1,117.7,188.3,117.7h0
							c68,0,131.3-39.6,188.1-117.6c2.1-2.9,5.4-4.6,9-4.6h0c3.5,0,6.9,1.7,9,4.5c42,57.1,111.5,124,203.8,117.6
							c46.8-3.1,81.4-29.1,102.2-50.3c4.2-4.2,8.4-9.4,12.9-14.9c17.5-21.3,41.5-50.4,77.7-44.6c6.1,1,10.2,6.7,9.3,12.8
							c-1,6.1-6.6,10.2-12.8,9.3c-23.7-3.7-40.6,16.8-57,36.8c-4.9,6-9.6,11.7-14.2,16.3c-23.5,24-62.8,53.4-116.6,57
							C1754.2-81.3,1749.7-81.2,1745.2-81.2L1745.2-81.2z"/>
						
							<linearGradient id="SVGID_00000061469052408864215960000009399309120096470951_" gradientUnits="userSpaceOnUse" x1="801.4664" y1="281.1858" x2="801.4664" y2="1113.2291" gradientTransform="matrix(1 0 0 -1 0 800.09)">
							<stop  offset="0.13" style="stop-color:#2A88BD"/>
							<stop  offset="0.5" style="stop-color:#52BAC2"/>
							<stop  offset="0.83" style="stop-color:#6FDFC7"/>
							<stop  offset="1" style="stop-color:#7BEEC9"/>
						</linearGradient>
						<path style="fill:url(#SVGID_00000061469052408864215960000009399309120096470951_);" d="M1745.2,97
							c-89.2,0-156.8-59.5-200.6-115.3C1486.2,57,1418.2,96.6,1347.4,96.7h0c-70.9,0-138.8-39.7-197.2-114.9
							c-58.1,75.3-126.1,115-197.2,115h0c-88.2,0-154.7-59.9-197.2-115C697.1,57.1,631.8,95.7,561.2,96.6c-0.9,0-1.7,0-2.5,0
							c-71.1,0-139.1-39.6-197.4-114.8c-59.5,76.3-125.8,114.9-197.2,115h0c-71.3,0-137.6-38.7-197.2-115
							C-109.9,79.2-235.1,138.2-351.8,56c-5-3.5-6.2-10.5-2.7-15.5c3.5-5,10.5-6.2,15.5-2.7c108.9,76.7,227.4,14.5,296.5-81
							c2.1-2.9,5.4-4.6,9-4.6c2.9-0.1,6.9,1.7,9,4.5C33.1,34.8,96.5,74.4,163.9,74.4h0c67.6,0,131-39.6,188.3-117.8
							c2.1-2.9,5.4-4.5,9-4.5c3.1-0.2,6.9,1.7,9,4.6C409.3,10.5,473.6,74.3,558.6,74.3c0.8,0,1.5,0,2.3,0
							c66.9-0.9,129.4-40.5,185.8-117.8c2.1-2.9,5.5-4.6,9-4.6h0c3.6,0,6.9,1.7,9,4.6C803.5,10.4,867.6,74.5,952.8,74.5h0
							c85.2,0,149.3-64.1,188.2-117.8c2.1-2.9,5.5-4.6,9-4.6l0,0c3.6,0,6.9,1.7,9,4.6c56.8,78.1,120.1,117.7,188.2,117.7h0
							c68,0,131.3-39.6,188.1-117.6c2.1-2.9,5.4-4.6,9-4.6c4.2-0.1,6.9,1.7,9,4.5c42,57.1,111.5,123.9,203.8,117.6
							c46.8-3.1,81.4-29.1,102.2-50.3c4.2-4.2,8.4-9.4,12.9-14.9c17.5-21.3,41.5-50.4,77.7-44.6c6.1,1,10.2,6.7,9.3,12.8
							c-1,6.1-6.6,10.2-12.8,9.3c-23.5-3.8-40.6,16.9-57,36.8c-4.9,6-9.6,11.7-14.2,16.3c-23.5,24-62.8,53.4-116.6,57
							C1754.2,96.9,1749.7,97,1745.2,97L1745.2,97z"/>
						
							<linearGradient id="SVGID_00000096744696444945558060000015246832620162898360_" gradientUnits="userSpaceOnUse" x1="801.4664" y1="281.1858" x2="801.4664" y2="1113.2291" gradientTransform="matrix(1 0 0 -1 0 800.09)">
							<stop  offset="0.13" style="stop-color:#2A88BD"/>
							<stop  offset="0.5" style="stop-color:#52BAC2"/>
							<stop  offset="0.83" style="stop-color:#6FDFC7"/>
							<stop  offset="1" style="stop-color:#7BEEC9"/>
						</linearGradient>
						<path style="fill:url(#SVGID_00000096744696444945558060000015246832620162898360_);" d="M1745.2,275.3
							c-89.2,0-156.8-59.5-200.6-115.3c-58.4,75.2-126.3,114.9-197.2,114.9h0c-70.9,0-138.8-39.7-197.2-114.9
							c-58.1,75.3-126.1,115-197.2,115h0c-88.2,0-154.7-60-197.2-115C697.1,235.3,631.8,274,561.2,274.9c-0.9,0-1.7,0-2.5,0
							c-71.1,0-139.1-39.6-197.4-114.8C301.7,236.4,235.4,275,163.9,275h0c-71.3,0-137.6-38.7-197.2-115
							c-76.6,97.5-201.8,156.4-318.4,74.3c-5-3.5-6.2-10.5-2.7-15.5c3.5-5,10.5-6.2,15.5-2.7c108.9,76.7,227.4,14.6,296.5-81
							c2.1-2.9,5.8-4.3,9-4.6c3.5,0,6.9,1.7,9,4.5c57.5,78.2,120.8,117.8,188.3,117.8h0c67.6,0,131-39.7,188.3-117.8
							c2.1-2.9,5.4-4.5,9-4.5c3.1,0.1,6.9,1.7,9,4.6c39.1,53.8,103.4,117.6,188.4,117.6c0.8,0,1.5,0,2.3,0
							c66.9-0.9,129.4-40.5,185.8-117.8c2.1-2.9,5.5-4.6,9-4.6h0c3.6,0,6.9,1.7,9,4.6c38.8,53.7,102.9,117.8,188.1,117.8h0
							c85.2,0,149.3-64.1,188.2-117.8c2.1-2.9,5.5-4.6,9-4.6l0,0c3.6,0,6.9,1.7,9,4.6c56.8,78.1,120.1,117.7,188.2,117.7h0
							c68,0,131.3-39.6,188.1-117.6c2.1-2.9,5.4-4.6,9-4.6h0c3.5,0,6.9,1.7,9,4.5c42,57.1,111.5,124,203.8,117.6
							c46.8-3.1,81.4-29.1,102.2-50.3c4.2-4.2,8.4-9.4,12.9-14.9c17.5-21.3,41.3-50.5,77.7-44.6c6.1,1,10.2,6.7,9.3,12.8
							c-1,6.1-6.6,10.3-12.8,9.3c-23.8-3.8-40.6,16.9-57,36.8c-4.9,6-9.6,11.7-14.2,16.3c-23.5,24-62.8,53.4-116.6,57
							C1754.2,275.2,1749.7,275.3,1745.2,275.3L1745.2,275.3z"/>
						
							<linearGradient id="SVGID_00000048497843655598250770000003871472646815344311_" gradientUnits="userSpaceOnUse" x1="801.4664" y1="281.1858" x2="801.4664" y2="1113.2291" gradientTransform="matrix(1 0 0 -1 0 800.09)">
							<stop  offset="0.13" style="stop-color:#2A88BD"/>
							<stop  offset="0.5" style="stop-color:#52BAC2"/>
							<stop  offset="0.83" style="stop-color:#6FDFC7"/>
							<stop  offset="1" style="stop-color:#7BEEC9"/>
						</linearGradient>
						<path style="fill:url(#SVGID_00000048497843655598250770000003871472646815344311_);" d="M1745.2,453.6
							c-89.2,0-156.8-59.5-200.6-115.3c-58.4,75.2-126.3,114.9-197.2,114.9h0c-70.9,0-138.8-39.7-197.2-114.9
							c-58.1,75.3-126.1,115-197.2,115h0c-88.2,0-154.7-60-197.2-115c-58.5,75.3-123.8,113.9-194.5,114.9c-0.9,0-1.7,0-2.5,0
							c-71.1,0-139-39.6-197.4-114.8c-59.5,76.3-125.8,114.9-197.2,115h0c-71.3,0-137.6-38.7-197.2-115
							c-76.6,97.5-201.8,156.4-318.4,74.2c-5-3.5-6.2-10.5-2.7-15.5s10.5-6.2,15.5-2.7c108.9,76.7,227.4,14.6,296.5-81
							c2.1-2.9,5.8-5.1,9-4.6c3.5,0,6.9,1.7,9,4.5C33.1,391.4,96.5,431,163.9,431h0c67.6,0,131-39.7,188.3-117.8
							c2.1-2.9,5.4-4.5,9-4.5c3.1,0.4,6.9,1.7,9,4.6c39.1,53.8,103.4,117.6,188.4,117.6c0.8,0,1.5,0,2.3,0
							c66.9-0.9,129.4-40.5,185.8-117.8c2.1-2.9,5.5-4.6,9-4.6h0c3.6,0,6.9,1.7,9,4.6C803.5,366.9,867.6,431,952.9,431h0
							c85.2,0,149.3-64.1,188.2-117.8c2.1-2.9,5.5-4.6,9-4.6l0,0c3.6,0,6.9,1.7,9,4.6c56.8,78.1,120.1,117.8,188.3,117.8h0
							c68,0,131.3-39.6,188.1-117.6c2.1-2.9,5.4-4.6,9-4.6h0c3.5,0,6.9,1.7,9,4.5c42,57.1,111.4,124,203.8,117.6
							c46.8-3.1,81.4-29.1,102.2-50.3c4.2-4.2,8.4-9.4,12.9-14.9c17.5-21.2,41.4-50.4,77.7-44.6c6.1,1,10.2,6.7,9.3,12.8
							c-1,6.1-6.6,10.3-12.8,9.3c-23.7-3.7-40.6,16.9-57,36.8c-4.9,6-9.6,11.7-14.2,16.3c-23.5,24-62.8,53.3-116.6,57
							C1754.2,453.4,1749.7,453.6,1745.2,453.6L1745.2,453.6z"/>
					</g>
				</g>
			</g>
		</g>
		<g class="st1">
			<g>
				<defs>
					<rect id="SVGID_00000091736279368667785600000016231623495522654641_" x="-33.7" y="472" width="1578.1" height="858.1"/>
				</defs>
				<clipPath id="SVGID_00000039107789119188843080000002462043715531925683_">
					<use xlink:href="#SVGID_00000091736279368667785600000016231623495522654641_"  style="overflow:visible;"/>
				</clipPath>
				<g style="clip-path:url(#SVGID_00000039107789119188843080000002462043715531925683_);">
					<g>
						
							<linearGradient id="SVGID_00000111170379648080770890000004515566531688281014_" gradientUnits="userSpaceOnUse" x1="801.4664" y1="-595.3359" x2="801.4664" y2="236.7074" gradientTransform="matrix(1 0 0 -1 0 800.09)">
							<stop  offset="0.13" style="stop-color:#2A88BD"/>
							<stop  offset="0.5" style="stop-color:#52BAC2"/>
							<stop  offset="0.83" style="stop-color:#6FDFC7"/>
							<stop  offset="1" style="stop-color:#7BEEC9"/>
						</linearGradient>
						<path style="fill:url(#SVGID_00000111170379648080770890000004515566531688281014_);" d="M1745.2,617
							c-89.2,0-156.8-59.5-200.6-115.3c-58.4,75.2-126.3,114.9-197.2,114.9h0c-70.9,0-138.8-39.7-197.2-114.9
							c-58.1,75.3-126.1,115-197.2,115h0c-88.2,0-154.7-59.9-197.2-115C697.1,577,631.8,615.7,561.2,616.6c-0.9,0-1.7,0-2.5,0
							c-71.1,0-139-39.6-197.4-114.8c-59.5,76.3-125.8,114.9-197.2,115h0c-71.3,0-137.6-38.7-197.2-115
							c-76.6,97.5-201.8,156.4-318.4,74.2c-5-3.5-6.2-10.5-2.7-15.5c3.5-5,10.5-6.2,15.5-2.7c108.9,76.7,227.4,14.6,296.5-81
							c2.1-2.9,5.4-4.6,9-4.6h0c3.5,0,6.9,1.7,9,4.5c57.5,78.2,120.8,117.8,188.3,117.8h0c67.6,0,131-39.7,188.3-117.8
							c2.1-2.9,5.4-4.5,9-4.5h0c3.6,0,6.9,1.7,9,4.6c39.1,53.8,103.4,117.6,188.4,117.6c0.8,0,1.5,0,2.3,0
							c66.9-0.9,129.4-40.5,185.8-117.7c2.1-2.9,5.5-4.6,9-4.6h0c3.6,0,6.9,1.7,9,4.6c38.8,53.7,102.9,117.8,188.1,117.8h0
							c85.2,0,149.3-64.1,188.2-117.8c2.1-2.9,5.5-4.6,9-4.6l0,0c3.6,0,6.9,1.7,9,4.6c56.8,78.1,120.1,117.7,188.3,117.7h0
							c68,0,131.3-39.6,188.1-117.6c2.1-2.9,5.4-4.6,9-4.6h0c3.5,0,6.9,1.7,9,4.5c42,57.1,111.5,124.1,203.8,117.6
							c46.8-3.1,81.4-29.1,102.2-50.3c4.2-4.2,8.4-9.4,12.9-14.9c17.5-21.2,41.4-50.4,77.7-44.6c6.1,1,10.2,6.7,9.3,12.8
							c-1,6.1-6.6,10.2-12.8,9.3c-23.7-3.7-40.6,16.9-57,36.8c-4.9,6-9.6,11.7-14.2,16.3c-23.5,24-62.8,53.3-116.6,57
							C1754.2,616.9,1749.7,617,1745.2,617L1745.2,617z"/>
						
							<linearGradient id="SVGID_00000133499699768127961560000008839223424113806512_" gradientUnits="userSpaceOnUse" x1="801.4664" y1="-595.3359" x2="801.4664" y2="236.7074" gradientTransform="matrix(1 0 0 -1 0 800.09)">
							<stop  offset="0.13" style="stop-color:#2A88BD"/>
							<stop  offset="0.5" style="stop-color:#52BAC2"/>
							<stop  offset="0.83" style="stop-color:#6FDFC7"/>
							<stop  offset="1" style="stop-color:#7BEEC9"/>
						</linearGradient>
						<path style="fill:url(#SVGID_00000133499699768127961560000008839223424113806512_);" d="M1745.2,795.3
							c-89.2,0-156.8-59.5-200.6-115.3c-58.4,75.2-126.3,114.9-197.2,114.9h0c-70.9,0-138.8-39.7-197.2-114.9
							c-58.1,75.3-126.1,115-197.2,115h0c-88.2,0-154.7-59.9-197.2-115C697.1,755.3,631.8,794,561.2,794.9c-0.9,0-1.7,0-2.5,0
							c-71.1,0-139.1-39.6-197.4-114.8C301.7,756.3,235.4,795,163.9,795h0c-71.3,0-137.6-38.7-197.2-115
							c-76.6,97.5-201.8,156.4-318.4,74.2c-5-3.5-6.2-10.5-2.7-15.5c3.5-5,10.5-6.2,15.5-2.7c108.9,76.7,227.4,14.6,296.5-81
							c2.1-2.9,5.8-4.5,9-4.6c3.5,0,6.9,1.7,9,4.5c57.5,78.2,120.8,117.8,188.3,117.8h0c67.6,0,131-39.7,188.3-117.8
							c2.1-2.9,5.4-4.5,9-4.5c3.1-0.5,6.9,1.7,9,4.6c39.1,53.8,103.4,117.6,188.4,117.6c0.8,0,1.5,0,2.3,0
							c66.9-0.9,129.4-40.5,185.8-117.8c2.1-2.9,5.5-4.6,9-4.6h0c3.6,0,6.9,1.7,9,4.6c38.8,53.7,102.9,117.8,188.1,117.8h0
							c85.2,0,149.3-64.1,188.2-117.8c2.1-2.9,5.5-4.6,9-4.6l0,0c3.6,0,6.9,1.7,9,4.6c56.8,78.1,120.1,117.7,188.3,117.7h0
							c68,0,131.3-39.6,188.1-117.6c2.1-2.9,5.4-4.6,9-4.6h0c3.5,0,6.9,1.7,9,4.5c42,57.1,111.5,124,203.8,117.6
							c46.8-3.1,81.4-29.1,102.2-50.3c4.2-4.2,8.4-9.4,12.9-14.9c17.5-21.3,41.5-50.4,77.7-44.6c6.1,1,10.2,6.7,9.3,12.8
							c-1,6.1-6.6,10.2-12.8,9.3c-23.7-3.7-40.6,16.8-57,36.8c-4.9,6-9.6,11.7-14.2,16.3c-23.5,24-62.8,53.4-116.6,57
							C1754.2,795.2,1749.7,795.3,1745.2,795.3L1745.2,795.3z"/>
						
							<linearGradient id="SVGID_00000165915859278422321880000018347896699349170360_" gradientUnits="userSpaceOnUse" x1="801.4664" y1="-595.3359" x2="801.4664" y2="236.7074" gradientTransform="matrix(1 0 0 -1 0 800.09)">
							<stop  offset="0.13" style="stop-color:#2A88BD"/>
							<stop  offset="0.5" style="stop-color:#52BAC2"/>
							<stop  offset="0.83" style="stop-color:#6FDFC7"/>
							<stop  offset="1" style="stop-color:#7BEEC9"/>
						</linearGradient>
						<path style="fill:url(#SVGID_00000165915859278422321880000018347896699349170360_);" d="M1745.2,973.6
							c-89.2,0-156.8-59.5-200.6-115.3c-58.4,75.2-126.3,114.9-197.2,114.9h0c-70.9,0-138.8-39.7-197.2-114.9
							c-58.1,75.3-126.1,115-197.2,115h0c-88.2,0-154.7-59.9-197.2-115c-58.5,75.3-123.9,113.9-194.5,114.9c-0.9,0-1.7,0-2.5,0
							c-71.1,0-139.1-39.6-197.4-114.8c-59.5,76.3-125.8,114.9-197.2,115h0c-71.3,0-137.6-38.7-197.2-115
							c-76.6,97.5-201.7,156.4-318.4,74.3c-5-3.5-6.2-10.5-2.7-15.5c3.5-5,10.5-6.2,15.5-2.7c108.9,76.7,227.4,14.5,296.5-81
							c2.1-2.9,5.4-4.6,9-4.6c2.9-0.1,6.9,1.7,9,4.5C33.1,911.3,96.5,951,163.9,951h0c67.6,0,131-39.6,188.3-117.8
							c2.1-2.9,5.4-4.5,9-4.5c3.1-0.2,6.9,1.7,9,4.6c39.1,53.8,103.4,117.6,188.4,117.6c0.8,0,1.5,0,2.3,0
							c66.9-0.9,129.4-40.5,185.8-117.8c2.1-2.9,5.5-4.6,9-4.6h0c3.6,0,6.9,1.7,9,4.6C803.5,886.9,867.6,951,952.8,951h0
							c85.2,0,149.3-64.1,188.2-117.8c2.1-2.9,5.5-4.6,9-4.6l0,0c3.6,0,6.9,1.7,9,4.6c56.8,78.1,120.1,117.7,188.2,117.7h0
							c68,0,131.3-39.6,188.1-117.6c2.1-2.9,5.4-4.6,9-4.6c4.2-0.1,6.9,1.7,9,4.5c42,57.1,111.5,123.9,203.8,117.6
							c46.8-3.1,81.4-29.1,102.2-50.3c4.2-4.2,8.4-9.4,12.9-14.9c17.5-21.3,41.5-50.4,77.7-44.6c6.1,1,10.2,6.7,9.3,12.8
							c-1,6.1-6.6,10.2-12.8,9.3c-23.5-3.8-40.6,16.9-57,36.8c-4.9,6-9.6,11.7-14.2,16.3c-23.5,24-62.8,53.4-116.6,57
							C1754.2,973.4,1749.7,973.6,1745.2,973.6L1745.2,973.6z"/>
						
							<linearGradient id="SVGID_00000164482354314924853550000004306339651927037624_" gradientUnits="userSpaceOnUse" x1="801.4664" y1="-595.3359" x2="801.4664" y2="236.7074" gradientTransform="matrix(1 0 0 -1 0 800.09)">
							<stop  offset="0.13" style="stop-color:#2A88BD"/>
							<stop  offset="0.5" style="stop-color:#52BAC2"/>
							<stop  offset="0.83" style="stop-color:#6FDFC7"/>
							<stop  offset="1" style="stop-color:#7BEEC9"/>
						</linearGradient>
						<path style="fill:url(#SVGID_00000164482354314924853550000004306339651927037624_);" d="M1745.2,1151.8
							c-89.2,0-156.8-59.5-200.6-115.3c-58.4,75.2-126.3,114.9-197.2,114.9h0c-70.9,0-138.8-39.7-197.2-114.9
							c-58.1,75.3-126.1,115-197.2,115h0c-88.2,0-154.7-60-197.2-115c-58.5,75.3-123.8,113.9-194.5,114.9c-0.9,0-1.7,0-2.5,0
							c-71.1,0-139.1-39.6-197.4-114.8c-59.5,76.3-125.8,114.9-197.2,115h0c-71.3,0-137.6-38.7-197.2-115
							c-76.6,97.5-201.8,156.4-318.4,74.3c-5-3.5-6.2-10.5-2.7-15.5c3.5-5,10.5-6.2,15.5-2.7c108.9,76.7,227.4,14.6,296.5-81
							c2.1-2.9,5.8-4.3,9-4.6c3.5,0,6.9,1.7,9,4.5c57.5,78.2,120.8,117.8,188.3,117.8h0c67.6,0,131-39.7,188.3-117.8
							c2.1-2.9,5.4-4.5,9-4.5c3.1,0.1,6.9,1.7,9,4.6c39.1,53.8,103.4,117.6,188.4,117.6c0.8,0,1.5,0,2.3,0
							c66.9-0.9,129.4-40.5,185.8-117.8c2.1-2.9,5.5-4.6,9-4.6h0c3.6,0,6.9,1.7,9,4.6c38.8,53.7,102.9,117.8,188.1,117.8h0
							c85.2,0,149.3-64.1,188.2-117.8c2.1-2.9,5.5-4.6,9-4.6l0,0c3.6,0,6.9,1.7,9,4.6c56.8,78.1,120.1,117.7,188.2,117.7h0
							c68,0,131.3-39.6,188.1-117.6c2.1-2.9,5.4-4.6,9-4.6h0c3.5,0,6.9,1.7,9,4.5c42,57.1,111.5,124,203.8,117.6
							c46.8-3.1,81.4-29.1,102.2-50.3c4.2-4.2,8.4-9.4,12.9-14.9c17.5-21.3,41.3-50.5,77.7-44.6c6.1,1,10.2,6.7,9.3,12.8
							c-1,6.1-6.6,10.3-12.8,9.3c-23.8-3.8-40.6,16.9-57,36.8c-4.9,6-9.6,11.7-14.2,16.3c-23.5,24-62.8,53.4-116.6,57
							C1754.2,1151.7,1749.7,1151.8,1745.2,1151.8L1745.2,1151.8z"/>
						
							<linearGradient id="SVGID_00000146471035823556402120000018008111413376209285_" gradientUnits="userSpaceOnUse" x1="801.4664" y1="-595.3359" x2="801.4664" y2="236.7074" gradientTransform="matrix(1 0 0 -1 0 800.09)">
							<stop  offset="0.13" style="stop-color:#2A88BD"/>
							<stop  offset="0.5" style="stop-color:#52BAC2"/>
							<stop  offset="0.83" style="stop-color:#6FDFC7"/>
							<stop  offset="1" style="stop-color:#7BEEC9"/>
						</linearGradient>
						<path style="fill:url(#SVGID_00000146471035823556402120000018008111413376209285_);" d="M1745.2,1330.1
							c-89.2,0-156.8-59.5-200.6-115.3c-58.4,75.2-126.3,114.9-197.2,114.9h0c-70.9,0-138.8-39.7-197.2-114.9
							c-58.1,75.3-126.1,115-197.2,115h0c-88.2,0-154.7-60-197.2-115c-58.5,75.3-123.8,113.9-194.5,114.9c-0.9,0-1.7,0-2.5,0
							c-71.1,0-139-39.6-197.4-114.8c-59.5,76.3-125.8,114.9-197.2,115h0c-71.3,0-137.6-38.7-197.2-115
							c-76.6,97.5-201.8,156.4-318.4,74.2c-5-3.5-6.2-10.5-2.7-15.5s10.5-6.2,15.5-2.7c108.9,76.7,227.4,14.6,296.5-81
							c2.1-2.9,5.8-5.1,9-4.6c3.5,0,6.9,1.7,9,4.5c57.5,78.2,120.8,117.8,188.3,117.8h0c67.6,0,131-39.7,188.3-117.8
							c2.1-2.9,5.4-4.5,9-4.5c3.1,0.4,6.9,1.7,9,4.6c39.1,53.8,103.4,117.6,188.4,117.6c0.8,0,1.5,0,2.3,0
							c66.9-0.9,129.4-40.5,185.8-117.8c2.1-2.9,5.5-4.6,9-4.6h0c3.6,0,6.9,1.7,9,4.6c38.8,53.7,102.9,117.8,188.1,117.8h0
							c85.2,0,149.3-64.1,188.2-117.8c2.1-2.9,5.5-4.6,9-4.6l0,0c3.6,0,6.9,1.7,9,4.6c56.8,78.1,120.1,117.8,188.3,117.8h0
							c68,0,131.3-39.6,188.1-117.6c2.1-2.9,5.4-4.6,9-4.6h0c3.5,0,6.9,1.7,9,4.5c42,57.1,111.4,124,203.8,117.6
							c46.8-3.1,81.4-29.1,102.2-50.3c4.2-4.2,8.4-9.4,12.9-14.9c17.5-21.2,41.4-50.4,77.7-44.6c6.1,1,10.2,6.7,9.3,12.8
							c-1,6.1-6.6,10.3-12.8,9.3c-23.7-3.7-40.6,16.9-57,36.8c-4.9,6-9.6,11.7-14.2,16.3c-23.5,24-62.8,53.3-116.6,57
							C1754.2,1330,1749.7,1330.1,1745.2,1330.1L1745.2,1330.1z"/>
					</g>
				</g>
			</g>
		</g>
		<g>
			<path class="st14" d="M375.9,113.1v186c0,10.3-8.3,18.7-18.7,18.7h-12.5V191.4l-20.5,43.4h-21.6l-22-45.2v109.5
				c0,10.3-8.3,18.7-18.7,18.7h-12.4V113.2h31.1l32.5,72.2l31.5-72.2L375.9,113.1L375.9,113.1z"/>
			<path class="st14" d="M492.4,286.1h104v11.1c0,11.1-9,20-20,20h-114l-1.2-36.1c0-13.5-8.7-54.4-18.4-94.6
				c-9.6,40.2-18.4,81.2-18.4,94.6v16.5c0,11.1-9,20-20,20h-11.1v-36.5c0-30.2,29.6-143.7,32.9-156.6l3-11.6h27l3,11.6
				c3.4,12.8,32.7,125.6,32.9,156.3L492.4,286.1L492.4,286.1z M519.8,264.2h-11.1v-151H556c20.6,0,41.5,15.5,41.5,50.2
				c0,14.6-3.7,25.3-9.3,33c3.2,4.6,5.1,9.9,5.1,15.6v32.2c0,11.1-9,20-20,20h-11.1v-50.5c-1.2-0.7-3.6-1.7-7-1.7h-15.2v32.1
				C539.9,255.2,530.9,264.2,519.8,264.2L519.8,264.2L519.8,264.2z M539.9,180.9H556c3.4,0,10.4,0,10.4-17.5c0-5.7-1-19-10.4-19
				h-16.1V180.9L539.9,180.9z"/>
			<path class="st14" d="M645.7,176.8v41.7h29.5v11.4c0,7.9-7.8,14.3-17.3,14.3h-12.2V292l36-0.1l0,11.4c0,7.9-7.7,14.4-17.3,14.4
				l-49.8,0.1V150.5c0,0,11.4-4.5,22.1-4.4c7,0,17.9,5.4,24.2,5.6c5.3,0.2,20.8-3,20.8-3v11.4c0,7.9-7.8,16.7-17.3,16.7H645.7
				L645.7,176.8z"/>
			<path class="st14" d="M830,159.9v-9.5c0-3.5-3-6.3-6.6-6.3H801c-0.1,1.8-0.1,3.9-0.1,5.6v136.7h22.4c3.7,0,5.3-0.4,5.9-0.6
				c0.2-0.6,0.7-2.2,0.7-5.7v-33c0-9.1,7.4-16.5,16.5-16.5h14.6v49.5c0,14-4.9,37.4-37.8,37.4h-26c-5,0-18.2,0-24.4-12.4
				c-3.2-6.3-3.2-13-3.2-24V149.7c0-6.9,0-14.1,2.6-20.7c4-10.2,13.1-16,25-16h26c20.8,0,37.8,16.8,37.8,37.4v26h-14.6
				C837.4,176.4,830,169,830,159.9L830,159.9L830,159.9z"/>
			<path class="st14" d="M1083.4,286.7v9.3c0,12-9.8,21.8-21.8,21.8h-81.5c-7,0-17.1-0.8-24.3-8.1c-7.3-7.3-7.3-16.5-7.3-22.5v-56.8
				h-32.7v65.4c0,12-9.8,21.8-21.8,21.8h-9.3V134.7c0-12,9.8-21.8,21.8-21.8h9.3v86.4h32.7v-64.6c0-12,9.8-21.8,21.8-21.8h9.3v173.8
				L1083.4,286.7L1083.4,286.7L1083.4,286.7z M1051.3,263.6l-45.3,0.1V112.8l15.8,0.2c0.1,0,10,0.1,22,0.1h29.4v9.3
				c0,12-9.8,21.8-21.8,21.8h-14.2v27.1h29.5v9.3c0,12-9.8,21.8-21.8,21.8h-7.7v30.1l36-0.1v9.3
				C1073.1,253.8,1063.4,263.6,1051.3,263.6L1051.3,263.6L1051.3,263.6z"/>
			<path class="st14" d="M1131.7,130.9v186.8h-13.2c-9.9,0-17.9-8-17.9-17.9V112.9h13.2C1123.7,112.9,1131.7,121,1131.7,130.9
				L1131.7,130.9z"/>
			<path class="st14" d="M661.3,143.8c-8.8-1.4-19.5-4-24.6-3.8c-5.7,0.3-22.1,4-22.1,4v-26.5c7.7-3.1,14.8-4.4,23.3-4.4
				c4,0,18.7,5.6,23,5.6c7.9,0,20.8-3,20.8-3v12.7C681.2,134,674.1,145.7,661.3,143.8L661.3,143.8L661.3,143.8z"/>
			<path class="st14" d="M1250.4,297.2v2.7c0,9.8-8,17.8-17.8,17.8h-13.3v-20.5c0-13.5-8.7-58.9-18.4-104
				c-9.6,45.1-18.4,90.4-18.4,104v2.7c0,9.8-8,17.8-17.8,17.8h-13.3v-20.5c0-30,29.5-157.8,32.8-172.2l2.8-12h27.8l2.8,12
				C1220.9,139.4,1250.4,267.1,1250.4,297.2L1250.4,297.2L1250.4,297.2z"/>
		</g>
	</g>
</g>
</svg>
